<svg width="631" height="631" viewBox="0 0 631 631" fill="none" xmlns="http://www.w3.org/2000/svg">
  <mask id="mask0_8_2502" style="mask-type:alpha" maskUnits="userSpaceOnUse" x="0" y="0" width="631" height="631">
    <path d="M411.007 0H219.993C156.646 0 124.975 0 90.8798 10.7795C53.6508 24.3304 24.3303 53.6508 10.7796 90.8797C0 124.975 0 156.651 0 219.993V411.007C0 474.354 0 506.02 10.7796 540.12C24.3303 577.349 53.6508 606.67 90.8798 620.215C124.975 631 156.646 631 219.993 631H411.007C474.354 631 506.02 631 540.12 620.215C577.349 606.67 606.67 577.349 620.22 540.12C631 506.02 631 474.354 631 411.007V219.993C631 156.651 631 124.975 620.22 90.8797C606.67 53.6508 577.349 24.3304 540.12 10.7795C506.02 0 474.354 0 411.007 0Z" fill="#C4C4C4"></path>
  </mask>
  <g mask="url(#mask0_8_2502)">
    <g clip-path="url(#clip0_8_2502)">
      <rect width="631" height="631" fill="url(#paint0_linear_8_2502)"></rect>
      <path opacity="0.3" fill-rule="evenodd" clip-rule="evenodd" d="M592.107 590.248L631.93 630.071L630.071 631.93L590.248 592.107V631H587.619V590.248H432.498V631H429.869V590.248H316.815V631H314.186V590.248H201.131V631H198.502V590.248H43.3814V631H40.7522V592.107L0.929673 631.93L-0.929429 630.071L38.8931 590.248H0.00012207V587.619H40.7522V432.498H0.00012207V429.869H40.7522V316.815H0.00012207V314.186H40.7522V201.131H0.00012207V198.502H40.7522V43.3813H0.00012207V40.7522H38.8931L-0.929443 0.929651L0.929688 -0.929451L40.7522 38.8931V9.97782e-05H43.3814V40.7522H198.502V9.97782e-05H201.131V40.7522H314.186V9.97782e-05H316.815V40.7522H429.869V9.97782e-05H432.498V40.7522H587.619V9.97782e-05H590.248V38.8931L630.071 -0.929451L631.93 0.929651L592.107 40.7522H631V43.3813H590.248L590.248 198.502H631V201.131H590.248V314.186H631V316.815H590.248V429.869H631V432.498H590.248L590.248 587.619H631V590.248H592.107ZM587.619 585.76V432.498H564.164C550.747 460.963 532.588 486.751 510.704 508.844L587.619 585.76ZM508.844 506.985C530.228 485.396 548.021 460.243 561.253 432.498H438.258C437.623 433.163 436.983 433.824 436.338 434.479L508.844 506.985ZM434.479 436.338L506.985 508.844C485.396 530.228 460.243 548.021 432.498 561.253V438.258C433.164 437.623 433.824 436.983 434.479 436.338ZM434.479 432.62C434.519 432.579 434.559 432.539 434.599 432.498H434.357L434.479 432.62ZM432.498 434.357L432.62 434.479C432.579 434.519 432.539 434.559 432.498 434.599V434.357ZM429.869 428.01V340.279C425.142 362.199 414.274 381.834 399.155 397.295L429.869 428.01ZM397.295 399.154L428.01 429.869H340.279C362.199 425.142 381.835 414.274 397.295 399.154ZM397.295 395.436C417.164 375.108 429.517 347.404 429.861 316.815H318.674L397.295 395.436ZM316.815 318.674L395.436 397.295C375.108 417.164 347.404 429.517 316.815 429.861V318.674ZM314.186 312.326V201.139C283.597 201.483 255.892 213.836 235.564 233.705L314.186 312.326ZM233.705 235.564L312.326 314.186H201.139C201.483 283.597 213.836 255.892 233.705 235.564ZM233.705 231.846C249.166 216.726 268.801 205.858 290.721 201.131H202.991L233.705 231.846ZM201.131 202.99L231.846 233.705C216.726 249.166 205.858 268.801 201.131 290.721V202.99ZM198.502 196.643V196.401C198.462 196.441 198.421 196.481 198.38 196.521L198.502 196.643ZM196.521 198.38L196.643 198.502H196.401C196.441 198.462 196.481 198.421 196.521 198.38ZM196.521 194.662C197.176 194.017 197.837 193.377 198.502 192.743V69.7469C170.757 82.9795 145.605 100.772 124.015 122.156L196.521 194.662ZM122.156 124.015L194.662 196.521C194.017 197.176 193.377 197.837 192.743 198.502H69.7469C82.9796 170.757 100.772 145.605 122.156 124.015ZM122.156 120.297C144.249 98.4126 170.038 80.2528 198.502 66.8366V43.3813H45.2405L122.156 120.297ZM43.3814 45.2405L120.297 122.156C98.4126 144.249 80.2528 170.037 66.8366 198.502H43.3814V45.2405ZM508.844 510.704L585.76 587.619H432.498V564.164C460.963 550.747 486.751 532.588 508.844 510.704ZM198.502 587.619H45.2405L122.156 510.704C144.249 532.588 170.038 550.747 198.502 564.164V587.619ZM43.3814 585.76L120.297 508.844C98.4126 486.751 80.2528 460.963 66.8366 432.498H43.3814V585.76ZM198.502 561.253C170.757 548.021 145.605 530.228 124.015 508.844L196.521 436.338C197.176 436.983 197.837 437.623 198.502 438.258V561.253ZM122.156 506.985L194.662 434.479C194.017 433.824 193.377 433.163 192.743 432.498H69.747C82.9796 460.243 100.772 485.396 122.156 506.985ZM198.502 434.599L198.38 434.479L198.502 434.357V434.599ZM196.521 432.62L196.643 432.498H196.401L196.521 432.62ZM290.721 429.869H202.99L233.705 399.154C249.166 414.274 268.801 425.142 290.721 429.869ZM201.131 428.01L231.846 397.295C216.726 381.834 205.858 362.199 201.131 340.279V428.01ZM314.186 429.861C283.597 429.517 255.892 417.164 235.564 397.295L314.186 318.674V429.861ZM233.705 395.436L312.326 316.815H201.139C201.483 347.404 213.836 375.108 233.705 395.436ZM429.861 314.186H318.674L397.295 235.564C417.164 255.892 429.517 283.597 429.861 314.186ZM316.815 312.326L395.436 233.705C375.108 213.836 347.404 201.483 316.815 201.139V312.326ZM429.869 290.721C425.142 268.801 414.274 249.166 399.155 233.705L429.869 202.99V290.721ZM397.295 231.846L428.01 201.131H340.28C362.199 205.858 381.835 216.726 397.295 231.846ZM434.599 198.502H434.357L434.479 198.38L434.599 198.502ZM432.498 196.643L432.62 196.521L432.498 196.401V196.643ZM438.258 198.502C437.623 197.837 436.983 197.176 436.338 196.521L508.844 124.015C530.228 145.605 548.021 170.757 561.253 198.502H438.258ZM434.479 194.662L506.985 122.156C485.396 100.772 460.243 82.9795 432.498 69.7469V192.743C433.164 193.377 433.824 194.017 434.479 194.662ZM564.164 198.502C550.747 170.038 532.588 144.249 510.704 122.156L587.619 45.2404V198.502H564.164ZM508.844 120.297L585.76 43.3813H432.498V66.8365C460.963 80.2528 486.751 98.4126 508.844 120.297ZM65.6144 429.869H43.3814V353.663C47.1106 380.5 54.7162 406.096 65.6144 429.869ZM190.289 429.869H68.5103C52.5559 395.472 43.5754 357.182 43.3845 316.815H145.924C146.255 360.368 163.004 400.014 190.289 429.869ZM198.502 429.869H193.874C166.047 400.287 148.89 360.553 148.553 316.815H198.502V429.869ZM201.131 432.498V437.126C230.713 464.953 270.447 482.11 314.186 482.447V432.498H201.131ZM316.815 432.498V482.447C360.553 482.11 400.287 464.953 429.869 437.126V432.498H316.815ZM437.126 429.869H432.498V316.815H482.447C482.11 360.553 464.953 400.287 437.126 429.869ZM562.49 429.869H440.712C467.996 400.014 484.746 360.368 485.076 316.815H587.616C587.425 357.182 578.444 395.472 562.49 429.869ZM587.619 429.869H565.386C576.284 406.096 583.89 380.499 587.619 353.663V429.869ZM148.553 314.186H198.502V201.131H193.874C166.047 230.713 148.89 270.447 148.553 314.186ZM432.498 314.186H482.447C482.11 270.447 464.953 230.713 437.126 201.131H432.498V314.186ZM485.076 314.186H587.616C587.425 273.818 578.444 235.529 562.49 201.131H440.712C467.996 230.986 484.746 270.632 485.076 314.186ZM43.3845 314.186H145.924C146.255 270.632 163.004 230.986 190.288 201.131H68.5103C52.5558 235.529 43.5754 273.818 43.3845 314.186ZM565.386 201.131H587.619V277.337C583.89 250.501 576.284 224.904 565.386 201.131ZM429.869 198.502V193.874C400.287 166.047 360.553 148.89 316.815 148.553V198.502H429.869ZM314.186 198.502V148.553C270.447 148.89 230.713 166.047 201.131 193.874V198.502H314.186ZM43.3814 201.131H65.6143C54.7162 224.904 47.1106 250.5 43.3814 277.337V201.131ZM201.131 65.6143V43.3813H277.337C250.5 47.1106 224.904 54.7162 201.131 65.6143ZM429.869 65.6143C406.096 54.7162 380.5 47.1106 353.663 43.3813H429.869V65.6143ZM201.131 587.619H277.337C250.5 583.89 224.904 576.284 201.131 565.386V587.619ZM353.663 587.619H429.869V565.386C406.096 576.284 380.5 583.89 353.663 587.619ZM201.131 562.49V440.712C230.986 467.996 270.632 484.746 314.186 485.076V587.616C273.818 587.425 235.529 578.444 201.131 562.49ZM201.131 68.5103V190.288C230.986 163.004 270.632 146.254 314.186 145.924V43.3845C273.818 43.5754 235.529 52.5558 201.131 68.5103ZM316.815 587.616C357.182 587.425 395.472 578.444 429.869 562.49V440.712C400.014 467.996 360.368 484.746 316.815 485.076V587.616ZM316.815 145.924C360.368 146.254 400.014 163.004 429.869 190.288V68.5103C395.472 52.5558 357.182 43.5754 316.815 43.3845V145.924Z" fill="white"></path>
      <path d="M228.371 47.325H402.629C461.046 47.325 486.616 47.5108 514.085 56.1166C542.276 66.5064 564.493 88.7236 574.883 116.914C583.489 144.379 583.675 169.957 583.675 228.371V402.629C583.675 461.046 583.489 486.616 574.883 514.086C564.493 542.277 542.275 564.494 514.086 574.879C486.616 583.489 461.048 583.675 402.629 583.675H228.371C169.951 583.675 144.379 583.489 116.915 574.879C88.7253 564.494 66.5069 542.277 56.1166 514.085C47.5108 486.616 47.325 461.046 47.325 402.629V228.371C47.325 169.958 47.5109 144.38 56.1165 116.915C66.5063 88.7239 88.7239 66.5063 116.915 56.1165C144.379 47.5109 169.953 47.325 228.371 47.325Z" stroke="white" stroke-width="10.5167"></path>
    </g>
  </g>
  <defs>
    <linearGradient id="paint0_linear_8_2502" x1="315.5" y1="0" x2="315.5" y2="631" gradientUnits="userSpaceOnUse">
      <stop stop-color="#57B8EA"></stop>
      <stop offset="1" stop-color="#2765D9"></stop>
    </linearGradient>
    <clipPath id="clip0_8_2502">
      <rect width="631" height="631" fill="white"></rect>
    </clipPath>
  </defs>
  <g fill="#ffffff" fill-rule="nonzero" stroke="none" stroke-width="1" stroke-linecap="butt" stroke-linejoin="miter" stroke-miterlimit="10" stroke-dasharray="" stroke-dashoffset="0" font-family="none" font-weight="none" font-size="none" text-anchor="none" style="mix-blend-mode: normal" transform="matrix(1, 0, 0, 1, 190.869675, 187.672485)">
    <g transform="matrix(17.985428, 0, 0, 17.985428, -90.856247, -88.459839)" style="">
      <path d="M21.936,2.444c-0.745,-0.521 -1.683,-0.599 -2.506,-0.207l-17.488,9.212c-1.312,0.691 -1.235,2.581 0.116,3.19c0.289,0.13 0.541,0.228 0.738,0.282l2.144,0.536c0.739,0.186 1.531,0.049 2.167,-0.375l9.088,-6.979c0.207,-0.158 0.499,-0.133 0.673,0.059c0.176,0.19 0.176,0.483 0.001,0.675l-6.544,7.169c-0.292,0.294 -0.427,0.676 -0.384,1.065c0.043,0.389 0.257,0.732 0.587,0.942l0.035,0.018l7.945,3.783c1.217,0.58 2.642,-0.216 2.788,-1.556l1.691,-15.531c0.088,-0.907 -0.304,-1.76 -1.051,-2.283z"></path>
    </g>
  </g>
</svg>